<svg width="184" height="25" viewBox="0 0 184 25" fill="none" xmlns="http://www.w3.org/2000/svg">
<path d="M17.7273 8C17.4773 7.23485 17.1477 6.54924 16.7386 5.94318C16.3371 5.32954 15.8561 4.80682 15.2955 4.375C14.7424 3.94318 14.1136 3.61364 13.4091 3.38636C12.7045 3.15909 11.9318 3.04545 11.0909 3.04545C9.71212 3.04545 8.45833 3.40151 7.32955 4.11364C6.20076 4.82576 5.30303 5.875 4.63636 7.26136C3.9697 8.64773 3.63636 10.3485 3.63636 12.3636C3.63636 14.3788 3.97349 16.0795 4.64773 17.4659C5.32197 18.8523 6.23485 19.9015 7.38636 20.6136C8.53788 21.3258 9.83333 21.6818 11.2727 21.6818C12.6061 21.6818 13.7803 21.3977 14.7955 20.8295C15.8182 20.2538 16.6136 19.4432 17.1818 18.3977C17.7576 17.3447 18.0455 16.1061 18.0455 14.6818L18.9091 14.8636H11.9091V12.3636H20.7727V14.8636C20.7727 16.7803 20.3636 18.447 19.5455 19.8636C18.7348 21.2803 17.6136 22.3788 16.1818 23.1591C14.7576 23.9318 13.1212 24.3182 11.2727 24.3182C9.21212 24.3182 7.40152 23.8333 5.84091 22.8636C4.28788 21.8939 3.07576 20.5152 2.20455 18.7273C1.34091 16.9394 0.909091 14.8182 0.909091 12.3636C0.909091 10.5227 1.1553 8.86742 1.64773 7.39773C2.14773 5.92045 2.85227 4.66288 3.76136 3.625C4.67045 2.58712 5.74621 1.79167 6.98864 1.23864C8.23106 0.685605 9.59848 0.40909 11.0909 0.40909C12.3182 0.40909 13.4621 0.594696 14.5227 0.965908C15.5909 1.32954 16.5417 1.84848 17.375 2.52273C18.2159 3.18939 18.9167 3.98864 19.4773 4.92045C20.0379 5.8447 20.4242 6.87121 20.6364 8H17.7273ZM32.554 24.3636C30.8722 24.3636 29.4214 23.9924 28.2017 23.25C26.9896 22.5 26.054 21.4545 25.3949 20.1136C24.7434 18.7652 24.4176 17.197 24.4176 15.4091C24.4176 13.6212 24.7434 12.0455 25.3949 10.6818C26.054 9.31061 26.9706 8.24242 28.1449 7.47727C29.3267 6.70455 30.7055 6.31818 32.2812 6.31818C33.1903 6.31818 34.0881 6.4697 34.9744 6.77273C35.8608 7.07576 36.6676 7.56818 37.3949 8.25C38.1222 8.92424 38.7017 9.81818 39.1335 10.9318C39.5653 12.0455 39.7812 13.4167 39.7812 15.0455V16.1818H26.3267V13.8636H37.054C37.054 12.8788 36.857 12 36.4631 11.2273C36.0767 10.4545 35.5237 9.8447 34.804 9.39773C34.0919 8.95076 33.2509 8.72727 32.2812 8.72727C31.2131 8.72727 30.2888 8.99242 29.5085 9.52273C28.7358 10.0455 28.1411 10.7273 27.7244 11.5682C27.3078 12.4091 27.0994 13.3106 27.0994 14.2727V15.8182C27.0994 17.1364 27.3267 18.2538 27.7812 19.1705C28.2434 20.0795 28.8835 20.7727 29.7017 21.25C30.5199 21.7197 31.4706 21.9545 32.554 21.9545C33.2585 21.9545 33.8949 21.8561 34.4631 21.6591C35.0388 21.4545 35.535 21.1515 35.9517 20.75C36.3684 20.3409 36.6903 19.8333 36.9176 19.2273L39.5085 19.9545C39.2358 20.8333 38.7775 21.6061 38.1335 22.2727C37.4896 22.9318 36.6941 23.447 35.7472 23.8182C34.8002 24.1818 33.7358 24.3636 32.554 24.3636ZM51.4517 6.54545V8.81818H42.4062V6.54545H51.4517ZM45.0426 2.36364H47.7244V19C47.7244 19.7576 47.8343 20.3258 48.054 20.7045C48.2813 21.0758 48.5691 21.3258 48.9176 21.4545C49.2737 21.5758 49.6487 21.6364 50.0426 21.6364C50.3381 21.6364 50.5805 21.6212 50.7699 21.5909C50.9593 21.553 51.1108 21.5227 51.2244 21.5L51.7699 23.9091C51.5881 23.9773 51.3343 24.0455 51.0085 24.1136C50.6828 24.1894 50.2699 24.2273 49.7699 24.2273C49.0123 24.2273 48.2699 24.0644 47.5426 23.7386C46.8229 23.4129 46.2244 22.9167 45.7472 22.25C45.2775 21.5833 45.0426 20.7424 45.0426 19.7273V2.36364ZM67.6676 0.727272V24H64.8494V0.727272H67.6676ZM80.5455 6.54545V8.81818H71.5V6.54545H80.5455ZM74.1364 2.36364H76.8182V19C76.8182 19.7576 76.928 20.3258 77.1477 20.7045C77.375 21.0758 77.6629 21.3258 78.0114 21.4545C78.3674 21.5758 78.7424 21.6364 79.1364 21.6364C79.4318 21.6364 79.6742 21.6212 79.8636 21.5909C80.053 21.553 80.2045 21.5227 80.3182 21.5L80.8636 23.9091C80.6818 23.9773 80.428 24.0455 80.1023 24.1136C79.7765 24.1894 79.3636 24.2273 78.8636 24.2273C78.1061 24.2273 77.3636 24.0644 76.6364 23.7386C75.9167 23.4129 75.3182 22.9167 74.8409 22.25C74.3712 21.5833 74.1364 20.7424 74.1364 19.7273V2.36364ZM101.58 24H92.625V0.727272H101.489C103.883 0.727272 105.951 1.19318 107.693 2.125C109.443 3.04924 110.792 4.38257 111.739 6.125C112.693 7.85985 113.17 9.93939 113.17 12.3636C113.17 14.7879 112.697 16.8712 111.75 18.6136C110.803 20.3485 109.462 21.6818 107.727 22.6136C105.992 23.5379 103.943 24 101.58 24ZM98.9432 18.6364H101.352C102.504 18.6364 103.485 18.4508 104.295 18.0795C105.114 17.7083 105.735 17.0682 106.159 16.1591C106.591 15.25 106.807 13.9848 106.807 12.3636C106.807 10.7424 106.587 9.47727 106.148 8.56818C105.716 7.65909 105.08 7.01894 104.239 6.64773C103.405 6.27651 102.383 6.09091 101.17 6.09091H98.9432V18.6364ZM124.594 24.3182C122.7 24.3182 121.079 23.9432 119.73 23.1932C118.382 22.4356 117.348 21.3826 116.628 20.0341C115.908 18.678 115.548 17.1061 115.548 15.3182C115.548 13.5303 115.908 11.9621 116.628 10.6136C117.348 9.25758 118.382 8.20454 119.73 7.45454C121.079 6.69697 122.7 6.31818 124.594 6.31818C126.488 6.31818 128.109 6.69697 129.457 7.45454C130.806 8.20454 131.84 9.25758 132.56 10.6136C133.279 11.9621 133.639 13.5303 133.639 15.3182C133.639 17.1061 133.279 18.678 132.56 20.0341C131.84 21.3826 130.806 22.4356 129.457 23.1932C128.109 23.9432 126.488 24.3182 124.594 24.3182ZM124.639 19.6818C125.17 19.6818 125.628 19.5038 126.014 19.1477C126.401 18.7917 126.7 18.2841 126.912 17.625C127.124 16.9659 127.23 16.1818 127.23 15.2727C127.23 14.3561 127.124 13.572 126.912 12.9205C126.7 12.2614 126.401 11.7538 126.014 11.3977C125.628 11.0417 125.17 10.8636 124.639 10.8636C124.079 10.8636 123.598 11.0417 123.196 11.3977C122.795 11.7538 122.488 12.2614 122.276 12.9205C122.063 13.572 121.957 14.3561 121.957 15.2727C121.957 16.1818 122.063 16.9659 122.276 17.625C122.488 18.2841 122.795 18.7917 123.196 19.1477C123.598 19.5038 124.079 19.6818 124.639 19.6818ZM142.457 14.1818V24H136.185V6.54545H142.139V9.86364H142.321C142.7 8.75758 143.366 7.89015 144.321 7.26136C145.283 6.63258 146.404 6.31818 147.685 6.31818C148.92 6.31818 149.991 6.60227 150.901 7.17045C151.817 7.73106 152.526 8.50379 153.026 9.48864C153.533 10.4735 153.783 11.5985 153.776 12.8636V24H147.503V14.1818C147.51 13.3182 147.291 12.6402 146.844 12.1477C146.404 11.6553 145.791 11.4091 145.003 11.4091C144.488 11.4091 144.037 11.5227 143.651 11.75C143.272 11.9697 142.98 12.2879 142.776 12.7045C142.571 13.1136 142.465 13.6061 142.457 14.1818ZM165.236 24.3182C163.372 24.3182 161.766 23.9621 160.418 23.25C159.077 22.5303 158.043 21.5 157.315 20.1591C156.596 18.8106 156.236 17.197 156.236 15.3182C156.236 13.5152 156.599 11.9394 157.327 10.5909C158.054 9.24242 159.08 8.19318 160.406 7.44318C161.732 6.69318 163.296 6.31818 165.099 6.31818C166.418 6.31818 167.611 6.52273 168.679 6.93182C169.747 7.34091 170.66 7.93561 171.418 8.71591C172.175 9.48864 172.759 10.428 173.168 11.5341C173.577 12.6402 173.781 13.8864 173.781 15.2727V16.7273H158.19V13.2727H168.009C168.001 12.7727 167.872 12.3333 167.622 11.9545C167.38 11.5682 167.05 11.2689 166.634 11.0568C166.224 10.8371 165.759 10.7273 165.236 10.7273C164.728 10.7273 164.262 10.8371 163.838 11.0568C163.414 11.2689 163.073 11.5644 162.815 11.9432C162.565 12.322 162.433 12.7652 162.418 13.2727V17C162.418 17.5606 162.535 18.0606 162.77 18.5C163.005 18.9394 163.342 19.2841 163.781 19.5341C164.221 19.7841 164.751 19.9091 165.372 19.9091C165.804 19.9091 166.198 19.8485 166.554 19.7273C166.918 19.6061 167.228 19.4318 167.486 19.2045C167.743 18.9697 167.933 18.6894 168.054 18.3636H173.781C173.584 19.5758 173.118 20.6288 172.384 21.5227C171.649 22.4091 170.675 23.0985 169.463 23.5909C168.259 24.0758 166.849 24.3182 165.236 24.3182ZM183.614 0.727272L183.023 16.7273H177.841L177.25 0.727272H183.614ZM180.432 24.3636C179.553 24.3636 178.799 24.0568 178.17 23.4432C177.549 22.822 177.242 22.0682 177.25 21.1818C177.242 20.3182 177.549 19.5795 178.17 18.9659C178.799 18.3523 179.553 18.0455 180.432 18.0455C181.265 18.0455 182 18.3523 182.636 18.9659C183.28 19.5795 183.606 20.3182 183.614 21.1818C183.606 21.7727 183.451 22.3106 183.148 22.7955C182.852 23.2727 182.466 23.6553 181.989 23.9432C181.511 24.2235 180.992 24.3636 180.432 24.3636Z" fill="#454D57"/>
</svg>
